<svg width="92" height="93" viewBox="0 0 92 93" fill="none" xmlns="http://www.w3.org/2000/svg">
<g id="cake-slice--cherry-cake-birthday-event-special-sweet-bake">
<path id="Rectangle 33" d="M4.33398 59.5H87.6673V88.6667H4.33398V59.5Z" fill="#FFFACD"/>
<path id="Rectangle 35" d="M4.33398 59.5H87.6673V38.6667H4.33398V59.5Z" fill="white"/>
<path id="Rectangle 34" d="M4.33398 38.6665H87.6673V88.6665H4.33398V38.6665Z" stroke="#1D1D1B" stroke-width="8.33333"/>
<path id="Ellipse 596" d="M12.668 22C12.668 23.6415 12.9913 25.267 13.6195 26.7835C14.2477 28.3001 15.1684 29.6781 16.3291 30.8388C17.4899 31.9996 18.8679 32.9203 20.3844 33.5485C21.901 34.1767 23.5264 34.5 25.168 34.5C26.8095 34.5 28.4349 34.1767 29.9515 33.5485C31.4681 32.9203 32.8461 31.9996 34.0068 30.8388C35.1675 29.6781 36.0883 28.3001 36.7165 26.7835C37.3446 25.267 37.668 23.6415 37.668 22C37.668 20.3585 37.3446 18.733 36.7165 17.2165C36.0883 15.6999 35.1675 14.3219 34.0068 13.1612C32.8461 12.0004 31.4681 11.0797 29.9515 10.4515C28.4349 9.82332 26.8095 9.5 25.168 9.5C23.5264 9.5 21.901 9.82332 20.3844 10.4515C18.8679 11.0797 17.4899 12.0004 16.3291 13.1612C15.1684 14.3219 14.2477 15.6999 13.6195 17.2165C12.9913 18.733 12.668 20.3585 12.668 22Z" fill="#FFFACD"/>
<path id="Ellipse 597" d="M12.668 22C12.668 23.6415 12.9913 25.267 13.6195 26.7835C14.2477 28.3001 15.1684 29.6781 16.3291 30.8388C17.4899 31.9996 18.8679 32.9203 20.3844 33.5485C21.901 34.1767 23.5264 34.5 25.168 34.5C26.8095 34.5 28.4349 34.1767 29.9515 33.5485C31.4681 32.9203 32.8461 31.9996 34.0068 30.8388C35.1675 29.6781 36.0883 28.3001 36.7165 26.7835C37.3446 25.267 37.668 23.6415 37.668 22C37.668 20.3585 37.3446 18.733 36.7165 17.2165C36.0883 15.6999 35.1675 14.3219 34.0068 13.1612C32.8461 12.0004 31.4681 11.0797 29.9515 10.4515C28.4349 9.82332 26.8095 9.5 25.168 9.5C23.5264 9.5 21.901 9.82332 20.3844 10.4515C18.8679 11.0797 17.4899 12.0004 16.3291 13.1612C15.1684 14.3219 14.2477 15.6999 13.6195 17.2165C12.9913 18.733 12.668 20.3585 12.668 22Z" stroke="#1D1D1B" stroke-width="8.33333"/>
<path id="Vector 2439" d="M4.33398 59.5H87.6673" stroke="#1D1D1B" stroke-width="8.33333"/>
<path id="Vector 2440" d="M43.917 3.25L34.0059 13.1612" stroke="#1D1D1B" stroke-width="8.33333"/>
</g>
</svg>
