<svg width="142" height="148" viewBox="0 0 142 148" fill="none" xmlns="http://www.w3.org/2000/svg">
<g id="pacman--entertainment-gaming-pacman-video">
<path id="Vector" d="M74.2012 141.495C99.5806 141.495 121.682 127.462 133.171 106.732L77.2637 74.1196L133.171 41.5071C121.682 20.7771 99.5806 6.74463 74.2012 6.74463C36.9906 6.74463 6.82617 36.9096 6.82617 74.1196C6.82617 111.33 36.9906 141.495 74.2012 141.495Z" fill="#1D1D1B"/>
<path id="Vector_2" d="M74.2012 141.495C99.5806 141.495 121.682 127.462 133.171 106.732L77.2637 74.1196L133.171 41.5071C121.682 20.7771 99.5806 6.74463 74.2012 6.74463C36.9906 6.74463 6.82617 36.9096 6.82617 74.1196C6.82617 111.33 36.9906 141.495 74.2012 141.495Z" stroke="white" stroke-width="12.5"/>
<path id="Rectangle 1695" d="M58.8887 40.4324H65.0137V46.5574H58.8887V40.4324Z" stroke="white" stroke-width="12.5"/>
</g>
</svg>
