<svg width="95" height="99" viewBox="0 0 95 99" fill="none" xmlns="http://www.w3.org/2000/svg">
<g id="pacman--entertainment-gaming-pacman-video">
<path id="Vector" d="M49.8014 94.0643C66.721 94.0643 81.4552 84.7093 89.1148 70.8893L51.8431 49.1476L89.1148 27.406C81.4552 13.586 66.721 4.23096 49.8014 4.23096C24.9944 4.23096 4.88477 24.341 4.88477 49.1476C4.88477 73.9543 24.9944 94.0643 49.8014 94.0643Z" fill="#FFFACD"/>
<path id="Vector_2" d="M49.8014 94.0643C66.721 94.0643 81.4552 84.7093 89.1148 70.8893L51.8431 49.1476L89.1148 27.406C81.4552 13.586 66.721 4.23096 49.8014 4.23096C24.9944 4.23096 4.88477 24.341 4.88477 49.1476C4.88477 73.9543 24.9944 94.0643 49.8014 94.0643Z" stroke="#1D1D1B" stroke-width="8.33333"/>
<path id="Rectangle 1695" d="M39.5938 26.6895H43.6771V30.7728H39.5938V26.6895Z" stroke="#1D1D1B" stroke-width="8.33333"/>
</g>
</svg>
