<svg width="146" height="147" viewBox="0 0 146 147" fill="none" xmlns="http://www.w3.org/2000/svg">
<g id="party-popper--hobby-entertainment-party-popper-confetti-event">
<path id="Vector 1517" d="M95.1733 37.688L37.5664 95.2955L119.176 138.5L138.378 119.298L95.1733 37.688Z" fill="#FFFACD"/>
<path id="Intersect" fill-rule="evenodd" clip-rule="evenodd" d="M108.851 63.5249L95.1733 37.688L78.3008 54.5605V116.86L108.851 133.034V63.5249Z" fill="white"/>
<path id="Vector 1513" d="M95.1733 37.688L37.5664 95.2955L119.176 138.5L138.378 119.298L95.1733 37.688Z" stroke="#1D1D1B" stroke-width="12.5"/>
<path id="Vector 1514" d="M3.62109 24.1099H17.1992" stroke="#1D1D1B" stroke-width="12.5"/>
<path id="Ellipse 335" d="M38.5362 3.74023C35.6294 17.5384 38.1344 32.249 46.0525 44.4746" stroke="#1D1D1B" stroke-width="12.5"/>
<path id="Ellipse 336" d="M72.4756 35.5686C63.8594 26.9529 62.2437 13.9886 67.6262 3.7417" stroke="#1D1D1B" stroke-width="12.5"/>
<path id="Ellipse 337" d="M35.2367 70.4666C26.6805 61.9097 13.8348 60.2572 3.62109 65.5072" stroke="#1D1D1B" stroke-width="12.5"/>
<path id="Vector 1515" d="M78.3008 116.857V54.6611" stroke="#1D1D1B" stroke-width="12.5"/>
<path id="Vector 1516" d="M108.852 63.5913V132.946" stroke="#1D1D1B" stroke-width="12.5"/>
</g>
</svg>
