<svg width="94" height="94" viewBox="0 0 94 94" fill="none" xmlns="http://www.w3.org/2000/svg">
<g id="startup--shop-rocket-launch-startup">
<path id="Vector 2950" d="M18.832 46.0001L60.4988 4.3335H89.6655V33.5001L47.9988 75.1668L18.832 46.0001Z" fill="#FFFACD"/>
<path id="Vector 2951" d="M18.834 21L6.33398 33.5L18.834 46L43.834 21H18.834Z" fill="white"/>
<path id="Vector 2952" d="M73 75.167L60.5 87.667L48 75.167L73 50.167V75.167Z" fill="white"/>
<path id="Vector 48" d="M18.832 46.0001L60.4988 4.3335H89.6654V33.5001L47.9988 75.1668L18.832 46.0001Z" stroke="#1D1D1B" stroke-width="8.33333"/>
<path id="Vector 184" d="M18.834 21L6.33398 33.5L18.834 46L43.834 21H18.834Z" stroke="#1D1D1B" stroke-width="8.33333"/>
<path id="Vector 185" d="M73 75.167L60.5 87.667L48 75.167L73 50.167V75.167Z" stroke="#1D1D1B" stroke-width="8.33333"/>
<path id="Vector 186" d="M25.084 68.917L6.33398 87.667" stroke="#1D1D1B" stroke-width="8.33333"/>
<path id="Vector 187" d="M37.5833 81.417L29.25 89.7503" stroke="#1D1D1B" stroke-width="8.33333"/>
<path id="Vector 188" d="M12.5833 56.417L4.25 64.7503" stroke="#1D1D1B" stroke-width="8.33333"/>
<path id="Vector 2949" d="M66.8149 27.1851L58.3516 35.6486" stroke="#1D1D1B" stroke-width="8.33333"/>
</g>
</svg>
